<?xml version="1.0" standalone="no"?><!DOCTYPE svg PUBLIC "-//W3C//DTD SVG 1.1//EN" "http://www.w3.org/Graphics/SVG/1.1/DTD/svg11.dtd"><svg t="1645933731255" class="icon" viewBox="0 0 1024 1024" version="1.1" xmlns="http://www.w3.org/2000/svg" p-id="23274" xmlns:xlink="http://www.w3.org/1999/xlink" width="200" height="200"><defs><style type="text/css"></style></defs><path d="M691.2 896H307.2c-56.576 0-102.4-45.824-102.4-102.4V281.6c0-56.576 45.824-102.4 102.4-102.4h384c56.576 0 102.4 45.824 102.4 102.4v512c0 56.576-45.824 102.4-102.4 102.4zM307.2 230.4c-28.16 0-51.2 23.04-51.2 51.2v512c0 28.16 23.04 51.2 51.2 51.2h384c28.16 0 51.2-23.04 51.2-51.2V281.6c0-28.16-23.04-51.2-51.2-51.2H307.2z" fill="#333333" p-id="23275"></path><path d="M332.8 128h51.2v179.2h-51.2z" fill="#333333" p-id="23276"></path><path d="M614.4 128h51.2v179.2h-51.2z" fill="#333333" p-id="23277"></path><path d="M332.8 409.6h332.8c14.08 0 25.6 11.52 25.6 25.6s-11.52 25.6-25.6 25.6H332.8c-14.08 0-25.6-11.52-25.6-25.6s11.52-25.6 25.6-25.6z" fill="#333333" p-id="23278"></path><path d="M332.8 409.6h332.8v51.2H332.8z" fill="#333333" p-id="23279"></path><path d="M332.8 563.2h179.2c14.08 0 25.6 11.52 25.6 25.6s-11.52 25.6-25.6 25.6h-179.2c-14.08 0-25.6-11.52-25.6-25.6s11.52-25.6 25.6-25.6z" fill="#333333" p-id="23280"></path><path d="M332.8 563.2h179.2v51.2h-179.2z" fill="#333333" p-id="23281"></path><path d="M436.992 803.7632c-5.376-6.1952-7.936-13.824-7.168-21.9136 0.5376-7.936 4.352-15.3088 10.496-20.6848l348.9536-301.4912a30.5408 30.5408 0 0 1 43.008 3.0208c5.376 6.1952 8.064 14.0032 7.3216 22.1184a30.208 30.208 0 0 1-10.5216 20.6592l-348.7488 301.312a30.976 30.976 0 0 1-43.3408-3.0208z" fill="#333333" p-id="23282"></path><path d="M841.9328 454.2976l-19.328 16.7936a17.7152 17.7152 0 0 0-24.9344-1.7408L448.7424 770.816a17.2544 17.2544 0 0 0-5.9392 11.9296 17.2544 17.2544 0 0 0 4.1984 12.6464c6.4 7.3472 17.5872 8.1408 25.1392 1.5872l348.7232-301.312a17.2544 17.2544 0 0 0 5.9392-11.9296 17.2544 17.2544 0 0 0-4.1984-12.6464l19.328-16.7936m0 0c15.616 17.9712 13.696 45.056-4.2752 60.672l-348.928 301.4912a43.392 43.392 0 0 1-61.056-4.2752 42.9568 42.9568 0 0 1 4.2752-60.672l348.928-301.4912a43.392 43.392 0 0 1 61.056 4.2752z" fill="#333333" p-id="23283"></path><path d="M725.4528 505.4464l19.328-16.7936 49.664 57.2416-19.328 16.768z" fill="#FFFFFF" p-id="23284"></path></svg>