<?xml version="1.0" standalone="no"?><!DOCTYPE svg PUBLIC "-//W3C//DTD SVG 1.1//EN" "http://www.w3.org/Graphics/SVG/1.1/DTD/svg11.dtd"><svg t="1645934133149" class="icon" viewBox="0 0 1024 1024" version="1.1" xmlns="http://www.w3.org/2000/svg" p-id="9930" xmlns:xlink="http://www.w3.org/1999/xlink" width="200" height="200"><defs><style type="text/css"></style></defs><path d="M852 191.26H172c-17.673 0-32 14.327-32 32v481.005c0 17.673 14.327 32 32 32h308v63.292H270.018c-17.673 0-32 14.327-32 32s14.327 32 32 32h483.964c17.673 0 32-14.327 32-32s-14.327-32-32-32H544v-63.292h308c17.673 0 32-14.327 32-32V223.26c0-17.673-14.327-32-32-32z m-32 481.006H544V464.134l111.544 111.543c6.248 6.249 14.438 9.373 22.627 9.373s16.379-3.124 22.628-9.373c12.496-12.496 12.496-32.758 0-45.254L533.861 363.486c-12.496-12.497-32.758-12.497-45.254 0L323.201 528.891c-12.497 12.497-12.497 32.759 0 45.255 12.497 12.498 32.758 12.497 45.255 0.001L480 462.603v209.663H204V255.26h616v417.006z" fill="" p-id="9931"></path></svg>