<?xml version="1.0" standalone="no"?><!DOCTYPE svg PUBLIC "-//W3C//DTD SVG 1.1//EN" "http://www.w3.org/Graphics/SVG/1.1/DTD/svg11.dtd"><svg t="1645933878560" class="icon" viewBox="0 0 1077 1024" version="1.1" xmlns="http://www.w3.org/2000/svg" p-id="2302" xmlns:xlink="http://www.w3.org/1999/xlink" width="210.3515625" height="200"><defs><style type="text/css"></style></defs><path d="M947.588121 779.677311a151.476699 151.476699 0 1 0-208.928733-0.269412 235.802545 235.802545 0 0 0-130.597297 210.881968 33.676456 33.676456 0 0 0 67.352912 0 167.43934 167.43934 0 1 1 334.878679 0 33.676456 33.676456 0 0 0 67.352913 0 235.802545 235.802545 0 0 0-130.058474-210.612556z m-104.295984-193.504916a84.157464 84.157464 0 1 1-84.157464 84.123787 84.224817 84.224817 0 0 1 84.157464-84.123787zM134.705824 444.63025h353.602789v67.352912H134.705824zM134.705824 730.880126h218.896965v67.352912H134.705824z" fill="#575869" p-id="2303"></path><path d="M301.808399 0h67.352913v168.38228h-67.352913zM708.485283 0h67.352912v168.38228h-67.352912zM436.514224 50.514684h204.58447v67.352912h-204.58447z" fill="#575869" p-id="2304"></path><path d="M1036.561318 50.07689h-193.370211v67.352912H1010.293682v111.671129H67.352912V117.429802h167.102575v-67.352912H41.085276A41.085276 41.085276 0 0 0 0 91.162167v891.752557a41.085276 41.085276 0 0 0 41.085276 41.0516H488.308613v-67.352913H67.352912V296.453843h942.94077v181.852863h67.352913V91.12849a41.085276 41.085276 0 0 0-41.085277-41.0516z" fill="#575869" p-id="2305"></path></svg>