<?xml version="1.0" standalone="no"?><!DOCTYPE svg PUBLIC "-//W3C//DTD SVG 1.1//EN" "http://www.w3.org/Graphics/SVG/1.1/DTD/svg11.dtd"><svg t="1645933976237" class="icon" viewBox="0 0 1024 1024" version="1.1" xmlns="http://www.w3.org/2000/svg" p-id="4569" xmlns:xlink="http://www.w3.org/1999/xlink" width="200" height="200"><defs><style type="text/css"></style></defs><path d="M580.4 893.1H443.9c-49.5 0-89.7-40.3-89.7-89.7v-44.3c-49.5-26.6-91.4-65.2-122.2-112.5-35.3-54.2-53.9-117.2-53.8-182.2 0.1-89.7 35.1-173.7 98.4-236.6 62.9-62.5 146.5-96.8 235.5-96.8h1.8c88.8 0.5 172.2 35.4 234.9 98.4 62.7 63 97.2 146.6 97.2 235.5 0 64.8-18.6 127.7-53.8 181.8-30.7 47.2-72.6 85.8-122 112.3v44.4c-0.1 49.4-40.3 89.7-89.8 89.7zM512 190.9c-73.1 0-141.6 28.2-193.2 79.4-51.9 51.6-80.6 120.5-80.7 194.1-0.1 106.4 62.1 204 158.6 248.9 10.6 4.9 17.4 15.5 17.4 27.2v62.8c0 16.4 13.3 29.7 29.7 29.7h136.5c16.4 0 29.7-13.3 29.7-29.7v-62.9c0-11.7 6.8-22.3 17.3-27.2 96.2-44.8 158.4-142.3 158.4-248.4 0-150.2-122.2-273.1-272.4-273.9H512z" fill="#A8A8A8" p-id="4570"></path><path d="M384.1 556.6c-49.6 0-90-40.4-90-90s40.4-90 90-90 90 40.4 90 90-40.3 90-90 90z m0-120c-16.5 0-30 13.5-30 30s13.5 30 30 30 30-13.5 30-30-13.4-30-30-30z m256 120c-49.6 0-90-40.4-90-90s40.4-90 90-90 90 40.4 90 90-40.3 90-90 90z m0-120c-16.5 0-30 13.5-30 30s13.5 30 30 30 30-13.5 30-30-13.4-30-30-30z" fill="#A8A8A8" p-id="4571"></path></svg>