<?xml version="1.0" standalone="no"?><!DOCTYPE svg PUBLIC "-//W3C//DTD SVG 1.1//EN" "http://www.w3.org/Graphics/SVG/1.1/DTD/svg11.dtd"><svg t="1645934000158" class="icon" viewBox="0 0 1024 1024" version="1.1" xmlns="http://www.w3.org/2000/svg" p-id="5476" xmlns:xlink="http://www.w3.org/1999/xlink" width="200" height="200"><defs><style type="text/css"></style></defs><path d="M687.343 804.482H336.822c-60.388 0-109.524-49.135-109.524-109.524V256.863c0-60.388 49.136-109.524 109.524-109.524h350.521c60.387 0 109.523 49.136 109.523 109.524v438.095c0 60.39-49.137 109.524-109.523 109.524zM336.822 191.148c-36.237 0-65.714 29.477-65.714 65.714v438.095c0 36.238 29.477 65.715 65.714 65.715h350.521c36.235 0 65.714-29.477 65.714-65.715V256.863c0-36.237-29.479-65.714-65.714-65.714H336.822z" fill="#B5B5B6" p-id="5477"></path><path d="M512.104 322.577H336.822c-12.107 0-21.905-9.797-21.905-21.904 0-12.108 9.797-21.905 21.905-21.905h175.281c12.107 0 21.904 9.797 21.904 21.905 0.001 12.107-9.796 21.904-21.903 21.904zM687.343 454.006H336.822c-12.107 0-21.905-9.797-21.905-21.905 0-12.107 9.797-21.905 21.905-21.905h350.521c12.106 0 21.904 9.797 21.904 21.905s-9.798 21.905-21.904 21.905zM687.343 621.329a21.846 21.846 0 0 1-15.489-6.417l-61.948-61.971-61.95 61.971c-8.557 8.557-22.418 8.557-30.975 0-8.556-8.557-8.556-22.418 0-30.975l77.438-77.479c8.214-8.215 22.761-8.215 30.975 0l77.437 77.479c8.557 8.557 8.557 22.418 0 30.975a21.844 21.844 0 0 1-15.488 6.417z" fill="#B5B5B6" p-id="5478"></path><path d="M609.905 716.863c-12.108 0-21.905-9.797-21.905-21.905V519.72c0-12.106 9.797-21.904 21.905-21.904s21.904 9.798 21.904 21.904v175.238c0.001 12.108-9.795 21.905-21.904 21.905z" fill="#B5B5B6" p-id="5479"></path></svg>