<?xml version="1.0" standalone="no"?><!DOCTYPE svg PUBLIC "-//W3C//DTD SVG 1.1//EN" "http://www.w3.org/Graphics/SVG/1.1/DTD/svg11.dtd"><svg t="1645934170080" class="icon" viewBox="0 0 1024 1024" version="1.1" xmlns="http://www.w3.org/2000/svg" p-id="11145" xmlns:xlink="http://www.w3.org/1999/xlink" width="200" height="200"><defs><style type="text/css"></style></defs><path d="M741.568 540.0192c-98.9568 0-179.1744 80.2176-179.1744 179.1744s80.2176 179.1744 179.1744 179.1744c98.9568 0 179.1744-80.2176 179.1744-179.1744s-80.2176-179.1744-179.1744-179.1744z m63.9872 204.7744h-127.9872a25.6 25.6 0 0 1 0-51.2h127.9872a25.6 25.6 0 0 1 0 51.2zM621.6832 522.7392c15.68-30.0672 18.368-59.52 18.368-59.52 35.6224-13.1072 40.5632-57.3824 38.592-76.7872-3.3792-33.3056-25.728-38.4-25.728-38.4v-76.7872C619.2256 122.5472 472.7936 130.4704 472.7936 130.4704h-12.8s-145.664-7.9232-179.1744 140.7872v76.7872s-22.2336 5.0816-25.6 38.4c-1.9584 19.4048 2.9696 63.68 38.4 76.7872 0 0 20.0576 88.1664 89.5872 115.1872v51.2s-156.2112 17.0752-217.5744 115.1872c-31.2064 49.8816 9.8304 88.8192 38.4 89.5872h338.2272a228.9536 228.9536 0 0 1-31.0656-115.1872c0-83.264 44.3136-155.9808 110.4896-196.4672z" p-id="11146"></path></svg>