<?xml version="1.0" standalone="no"?><!DOCTYPE svg PUBLIC "-//W3C//DTD SVG 1.1//EN" "http://www.w3.org/Graphics/SVG/1.1/DTD/svg11.dtd"><svg t="1645934058473" class="icon" viewBox="0 0 1024 1024" version="1.1" xmlns="http://www.w3.org/2000/svg" p-id="6520" xmlns:xlink="http://www.w3.org/1999/xlink" width="200" height="200"><defs><style type="text/css"></style></defs><path d="M107.1 889.4c-1.2 11.7 10.1 20.2 21 15.5 13-5.6 134.6-58.8 191.3-83.5L130.1 681.9c-7.1 62.9-22 197.2-23 207.5zM623.9 708.3c0 16 13 28.9 29 28.9h231.6c16 0 29-13 29-28.9 0-15.9-13-28.9-29-28.9H652.8c-16 0.1-28.9 13-28.9 28.9zM745 273.9c13.6-18.4 9.6-44.4-8.8-58L585.8 105.1c-18.5-13.6-44.5-9.6-58.1 8.8l-12.3 16.7 217.2 160 12.4-16.7zM498.2 154L148.5 628.4l217.2 160.1L715.5 314zM888 849.2H425.2c-16 0-28.9 12.9-28.9 28.9 0 16 13 28.9 28.9 28.9H888c16 0 29-12.9 29-28.9 0-16-13-28.9-29-28.9z" p-id="6521"></path></svg>